HIERARCHY
ROOT Hips
{
    OFFSET   0.000000   0.000000   0.000000
    CHANNELS 6 Xposition Yposition Zposition Zrotation Xrotation Yrotation
    JOINT Chest
    {
        OFFSET   0.000000   8.007240   0.000000
        CHANNELS 3 Zrotation Xrotation Yrotation
        JOINT Chest2
        {
            OFFSET   0.000000  22.077100   0.000000
            CHANNELS 3 Zrotation Xrotation Yrotation
            JOINT Neck
            {
                OFFSET   0.000000  23.254800   0.000000
                CHANNELS 3 Zrotation Xrotation Yrotation
                JOINT Head
                {
                    OFFSET   0.000000  14.370000   1.956600
                    CHANNELS 3 Zrotation Xrotation Yrotation
                    End Site
                    {
                        OFFSET   0.000000  19.566000   0.000000
                    }
                }
            }
            JOINT LeftCollar
            {
                OFFSET   3.911900  19.017000  -0.467064
                CHANNELS 3 Zrotation Xrotation Yrotation
                JOINT LeftShoulder
                {
                    OFFSET  10.383700   0.000000   0.000000
                    CHANNELS 3 Zrotation Xrotation Yrotation
                    JOINT LeftElbow
                    {
                        OFFSET  26.662100   0.001476   0.000517
                        CHANNELS 3 Zrotation Xrotation Yrotation
                        JOINT LeftWrist
                        {
                            OFFSET  28.869000  -0.000025  -0.000106
                            CHANNELS 3 Zrotation Xrotation Yrotation
                            JOINT LeftFinger0
                            {
                                OFFSET   2.044660  -2.323460   3.252850
                                CHANNELS 3 Zrotation Xrotation Yrotation
                                JOINT LeftFinger01
                                {
                                    OFFSET   3.088130   0.000000   0.000000
                                    CHANNELS 3 Zrotation Xrotation Yrotation
                                    JOINT LeftFinger02
                                    {
                                        OFFSET   2.639460   0.000000   0.000000
                                        CHANNELS 3 Zrotation Xrotation Yrotation
                                        End Site
                                        {
                                            OFFSET   2.582190   0.000000   0.000000
                                        }
                                    }
                                }
                            }
                            JOINT LeftFinger1
                            {
                                OFFSET   8.364480   0.000000   3.252850
                                CHANNELS 3 Zrotation Xrotation Yrotation
                                JOINT LeftFinger11
                                {
                                    OFFSET   4.646930   0.000000   0.000000
                                    CHANNELS 3 Zrotation Xrotation Yrotation
                                    JOINT LeftFinger12
                                    {
                                        OFFSET   2.323460   0.000000   0.000000
                                        CHANNELS 3 Zrotation Xrotation Yrotation
                                        End Site
                                        {
                                            OFFSET   2.273050   0.000000   0.000000
                                        }
                                    }
                                }
                            }
                            JOINT LeftFinger2
                            {
                                OFFSET   8.364490   0.000015   1.078090
                                CHANNELS 3 Zrotation Xrotation Yrotation
                                JOINT LeftFinger21
                                {
                                    OFFSET   5.111620   0.000000   0.000000
                                    CHANNELS 3 Zrotation Xrotation Yrotation
                                    JOINT LeftFinger22
                                    {
                                        OFFSET   2.788160   0.000016   0.000000
                                        CHANNELS 3 Zrotation Xrotation Yrotation
                                        End Site
                                        {
                                            OFFSET   2.727660   0.000000   0.000000
                                        }
                                    }
                                }
                            }
                            JOINT LeftFinger3
                            {
                                OFFSET   7.899780   0.000017  -1.078090
                                CHANNELS 3 Zrotation Xrotation Yrotation
                                JOINT LeftFinger31
                                {
                                    OFFSET   4.646930   0.000000   0.000000
                                    CHANNELS 3 Zrotation Xrotation Yrotation
                                    JOINT LeftFinger32
                                    {
                                        OFFSET   2.323470   0.000000   0.000000
                                        CHANNELS 3 Zrotation Xrotation Yrotation
                                        End Site
                                        {
                                            OFFSET   2.273050   0.000000   0.000000
                                        }
                                    }
                                }
                            }
                            JOINT LeftFinger4
                            {
                                OFFSET   7.435090   0.000000  -3.252850
                                CHANNELS 3 Zrotation Xrotation Yrotation
                                JOINT LeftFinger41
                                {
                                    OFFSET   3.717550   0.000000   0.000000
                                    CHANNELS 3 Zrotation Xrotation Yrotation
                                    JOINT LeftFinger42
                                    {
                                        OFFSET   1.858770   0.000000   0.000000
                                        CHANNELS 3 Zrotation Xrotation Yrotation
                                        End Site
                                        {
                                            OFFSET   1.818440   0.000000   0.000000
                                        }
                                    }
                                }
                            }
                        }
                    }
                }
            }
            JOINT RightCollar
            {
                OFFSET  -3.911900  19.017000  -0.467063
                CHANNELS 3 Zrotation Xrotation Yrotation
                JOINT RightShoulder
                {
                    OFFSET -10.383700   0.000019   0.000000
                    CHANNELS 3 Zrotation Xrotation Yrotation
                    JOINT RightElbow
                    {
                        OFFSET -26.662100   0.001175   0.000102
                        CHANNELS 3 Zrotation Xrotation Yrotation
                        JOINT RightWrist
                        {
                            OFFSET -28.869000   0.000016  -0.000079
                            CHANNELS 3 Zrotation Xrotation Yrotation
                            JOINT RightFinger0
                            {
                                OFFSET  -2.044660  -2.323490   3.252850
                                CHANNELS 3 Zrotation Xrotation Yrotation
                                JOINT RightFinger01
                                {
                                    OFFSET  -3.088140   0.000000   0.000000
                                    CHANNELS 3 Zrotation Xrotation Yrotation
                                    JOINT RightFinger02
                                    {
                                        OFFSET  -2.639460   0.000000   0.000000
                                        CHANNELS 3 Zrotation Xrotation Yrotation
                                        End Site
                                        {
                                            OFFSET  -2.582190   0.000000   0.000000
                                        }
                                    }
                                }
                            }
                            JOINT RightFinger1
                            {
                                OFFSET  -8.364480   0.000000   3.252850
                                CHANNELS 3 Zrotation Xrotation Yrotation
                                JOINT RightFinger11
                                {
                                    OFFSET  -4.646930   0.000000   0.000000
                                    CHANNELS 3 Zrotation Xrotation Yrotation
                                    JOINT RightFinger12
                                    {
                                        OFFSET  -2.323470   0.000000   0.000000
                                        CHANNELS 3 Zrotation Xrotation Yrotation
                                        End Site
                                        {
                                            OFFSET  -2.273050   0.000000   0.000000
                                        }
                                    }
                                }
                            }
                            JOINT RightFinger2
                            {
                                OFFSET  -8.364480   0.000000   1.078090
                                CHANNELS 3 Zrotation Xrotation Yrotation
                                JOINT RightFinger21
                                {
                                    OFFSET  -5.111620   0.000000   0.000000
                                    CHANNELS 3 Zrotation Xrotation Yrotation
                                    JOINT RightFinger22
                                    {
                                        OFFSET  -2.788160   0.000000   0.000000
                                        CHANNELS 3 Zrotation Xrotation Yrotation
                                        End Site
                                        {
                                            OFFSET  -2.727660   0.000000   0.000000
                                        }
                                    }
                                }
                            }
                            JOINT RightFinger3
                            {
                                OFFSET  -7.899780   0.000000  -1.078090
                                CHANNELS 3 Zrotation Xrotation Yrotation
                                JOINT RightFinger31
                                {
                                    OFFSET  -4.646930   0.000000   0.000000
                                    CHANNELS 3 Zrotation Xrotation Yrotation
                                    JOINT RightFinger32
                                    {
                                        OFFSET  -2.323470   0.000000   0.000000
                                        CHANNELS 3 Zrotation Xrotation Yrotation
                                        End Site
                                        {
                                            OFFSET  -2.273050   0.000000   0.000000
                                        }
                                    }
                                }
                            }
                            JOINT RightFinger4
                            {
                                OFFSET  -7.435090   0.000000  -3.252850
                                CHANNELS 3 Zrotation Xrotation Yrotation
                                JOINT RightFinger41
                                {
                                    OFFSET  -3.717550   0.000000   0.000000
                                    CHANNELS 3 Zrotation Xrotation Yrotation
                                    JOINT RightFinger42
                                    {
                                        OFFSET  -1.858770   0.000000   0.000000
                                        CHANNELS 3 Zrotation Xrotation Yrotation
                                        End Site
                                        {
                                            OFFSET  -1.818440   0.000000   0.000000
                                        }
                                    }
                                }
                            }
                        }
                    }
                }
            }
        }
    }
    JOINT LeftHip
    {
        OFFSET   9.783040   0.000000   0.000000
        CHANNELS 3 Zrotation Xrotation Yrotation
        JOINT LeftKnee
        {
            OFFSET   0.000032 -41.789100  -0.002222
            CHANNELS 3 Zrotation Xrotation Yrotation
            JOINT LeftAnkle
            {
                OFFSET   0.000087 -41.133200  -0.000135
                CHANNELS 3 Zrotation Xrotation Yrotation
                JOINT LeftToe
                {
                    OFFSET   0.000000  -6.358960  14.674500
                    CHANNELS 3 Zrotation Xrotation Yrotation
                    End Site
                    {
                        OFFSET   0.000000   0.000000   3.913200
                    }
                }
            }
        }
    }
    JOINT RightHip
    {
        OFFSET  -9.783040   0.000000   0.000000
        CHANNELS 3 Zrotation Xrotation Yrotation
        JOINT RightKnee
        {
            OFFSET   0.000047 -41.789100  -0.000896
            CHANNELS 3 Zrotation Xrotation Yrotation
            JOINT RightAnkle
            {
                OFFSET  -0.000117 -41.133300  -0.000248
                CHANNELS 3 Zrotation Xrotation Yrotation
                JOINT RightToe
                {
                    OFFSET   0.000000  -6.358970  14.674500
                    CHANNELS 3 Zrotation Xrotation Yrotation
                    End Site
                    {
                        OFFSET   0.000000   0.000000   3.913200
                    }
                }
            }
        }
    }
}
MOTION
Frames: 4
Frame Time:   0.016667
 -4.004300  89.455700   0.546306  -5.185400 -11.811700  -9.205250   3.951880   8.202240   0.084395   8.016670  16.390400  -0.415970  -0.326362  -5.606390  -0.031015  -0.551407 -11.367400  11.860400 -12.382800  -2.457910  -4.435990 -63.318800  27.061100  -9.784240  -3.621140  -8.070420  -9.781570   2.697600  -5.078190   8.103420  38.592800  27.732100 -68.904300 -21.029700  -0.003182  -0.001131  -5.514870   0.004462   0.002304 -27.810500   5.559680 -10.407400 -23.168500   0.000000   0.000754 -16.218000   0.000398   0.000440 -27.139200   3.459080  -6.713290 -28.459000   0.007161   0.004182 -18.953700   0.001339   0.006765 -27.275400   1.050610  -2.036690 -28.242600   0.001222   0.014297 -18.809600   0.001967   0.011391 -29.610500   1.089910  -1.916830 -44.443100   0.001742  -0.000418 -29.599200   0.002095   0.000256   9.296500   0.041005  17.324100  17.132900  33.720600  77.227900 -14.319200  -7.859120 104.381000 -50.892000  55.072000  62.537600 -59.040400  54.333300 108.293000  11.849800   0.001672  -0.000316   0.924919  -0.000537  -0.001588  88.996200   5.000580   0.087481  77.401200  -0.001270   0.004728  58.050900   0.001779   0.005214  89.000000  -0.000934   0.000085  93.618500  -0.004680   0.000809  70.213900  -0.000431   0.004676  88.996100  -4.997040  -0.088325  92.762400  -0.009403   0.000179  69.571800   0.000069   0.004672  88.984600 -10.001300  -0.176308 110.000000  -0.001847   0.000131  80.000000  -0.000643   0.002062   5.099350  17.902200   5.259510   0.951028   0.245949  13.982200  -4.353500  -3.978050   4.597310  -0.000000   0.000000  -0.000000   2.964290  10.861300  -6.887440   1.466240   5.138790  -2.738240  -2.519010  -2.783960   6.172240  -0.000000   0.000000   0.000000
 -4.032800  89.456100   0.515690  -5.149090 -11.795400  -9.135460   3.907690   8.195800   0.090661   7.925680  16.378300  -0.395781  -0.326340  -5.526730  -0.031038  -0.553358 -11.205800  11.787900 -12.357400  -2.451450  -4.402210 -63.318500  27.080600  -9.779330  -3.615780  -8.101520  -9.839460   2.733000  -5.138400   8.058590  38.585300  27.753700 -68.944100 -21.048400  -0.003142  -0.001150  -5.524200   0.004467   0.002297 -27.860500   5.590350 -10.441900 -23.213300  -0.000296   0.000766 -16.249300   0.000291   0.000485 -27.152400   3.455050  -6.702700 -28.518300   0.007072   0.004107 -18.993200   0.001329   0.006713 -27.300900   1.050140  -2.035350 -28.356800   0.001222   0.005670 -18.885700   0.001967   0.004412 -29.700300   1.097190  -1.920270 -44.578000   0.001742  -0.000418 -29.689000   0.002097   0.000256   9.273990   0.067152  17.310800  17.205100  33.695900  77.109800 -14.697200  -7.852730 104.441000 -50.315300  54.884400  61.663900 -59.040400  54.333300 108.293000  13.036200   0.001662  -0.000312   1.518110  -0.000336  -0.002154  88.996200   5.000530   0.087479  77.723600  -0.001557   0.004983  58.292700   0.001686   0.005515  89.000000  -0.000896   0.000079  94.285400  -0.005179   0.000862  70.714100  -0.000423   0.004945  88.996100  -4.997140  -0.088298  93.225400  -0.010083   0.000157  69.919100   0.000328   0.004883  88.984600 -10.001300  -0.176315 110.000000  -0.001778   0.000140  80.000000  -0.000597   0.002022   5.107130  17.854500   5.203870   0.949690   0.248947  13.980400  -4.360600  -3.949430   4.582270  -0.000000   0.000000   0.000000   2.960790  10.829700  -6.904020   1.480850   5.120990  -2.737770  -2.515270  -2.773490   6.131810   0.000000   0.000000   0.000000
 -4.055330  89.457700   0.482327  -5.111820 -11.772500  -9.067500   3.859870   8.189830   0.097956   7.827380  16.367300  -0.373874  -0.326330  -5.462190  -0.031108  -0.550585 -11.074900  11.709300 -12.331600  -2.440500  -4.363380 -63.317900  27.090000  -9.777590  -3.619800  -8.151700  -9.916720   2.754420  -5.169200   8.013810  38.576200  27.779000 -68.980500 -21.080000  -0.003104  -0.001169  -5.539980   0.004471   0.002290 -27.889400   5.605640 -10.457400 -23.238800  -0.000449   0.000775 -16.267100   0.000196   0.000508 -27.161600   3.443830  -6.677640 -28.552300   0.006983   0.004031 -19.015900   0.001319   0.006663 -27.315400   1.046830  -2.025980 -28.421500   0.001220  -0.000673 -18.928800   0.001967  -0.000677 -29.753300   1.098410  -1.920760 -44.657600   0.001741  -0.000417 -29.742000   0.002099   0.000257   9.230170   0.093311  17.282900  17.273900  33.690200  76.981400 -15.156300  -7.913010 104.583000 -49.560300  54.690800  60.543700 -59.040400  54.333300 108.293000  13.615700   0.001644  -0.000307   1.807840  -0.000242  -0.002718  88.996200   5.000470   0.087477  78.080300  -0.001853   0.005235  58.560200   0.001588   0.005824  89.000000  -0.000856   0.000075  94.689500  -0.005687   0.000924  71.017100  -0.000417   0.005217  88.996100  -4.997240  -0.088270  93.690400  -0.010758   0.000140  70.267800   0.000584   0.005105  88.984600 -10.001300  -0.176321 110.000000  -0.001706   0.000148  80.000000  -0.000551   0.001982   5.113740  17.789500   5.151690   0.947325   0.256965  13.978700  -4.366000  -3.925510   4.570000   0.000000   0.000000   0.000000   2.943980  10.788100  -6.911620   1.500380   5.106700  -2.734930  -2.502000  -2.759250   6.083810   0.000000   0.000000  -0.000000
 -4.064710  89.460600   0.447133  -5.073290 -11.742100  -9.002210   3.809260   8.179960   0.101726   7.723720  16.348300  -0.357975  -0.326349  -5.411460  -0.031161  -0.545393 -10.971900  11.640700 -12.307500  -2.414410  -4.305340 -63.302300  27.085700  -9.787430  -3.630450  -8.186970  -9.996950   2.765090  -5.141630   7.984210  38.599100  27.781700 -68.964100 -21.109600  -0.003070  -0.001128  -5.554820   0.004467   0.002292 -27.824200   5.543430 -10.371900 -23.177200  -0.000432   0.000794 -16.224100   0.000091   0.000521 -27.160700   3.419120  -6.630350 -28.532600   0.006899   0.003959 -19.002800   0.001307   0.006608 -27.290600   1.002840  -1.941580 -28.301800   0.001217  -0.000629 -18.849000   0.001968  -0.000693 -29.666700   1.051430  -1.844950 -44.525400   0.001740  -0.000414 -29.653900   0.002099   0.000260   9.172590   0.093324  17.241000  17.325000  33.730300  76.856100 -15.872200  -8.076830 104.849000 -48.652600  54.477500  59.155400 -59.040400  54.333300 108.293000  13.380300  -0.001857  -0.002004   1.690160  -0.001515  -0.002996  88.996200   5.000410   0.087488  78.439000  -0.002006   0.005469  58.829300   0.001484   0.006139  89.000000  -0.000813   0.000082  94.771100  -0.006209   0.000996  71.078300  -0.000412   0.005488  88.996100  -4.997330  -0.088223  94.120300  -0.011416   0.000127  70.590200   0.000839   0.005300  88.984600 -10.001400  -0.176311 110.000000  -0.001637   0.000151  80.000000  -0.000498   0.001944   5.112870  17.708800   5.125490   0.945328   0.274085  13.949100  -4.368370  -3.896810   4.566900   0.000000   0.000000   0.000000   2.907240  10.737100  -6.908170   1.532180   5.097130  -2.722570  -2.478790  -2.739480   6.031610  -0.000000   0.000000   0.000000
